# Made in Blockbench 4.2.4
mtllib barrel.mtl

o cylinder
v 0 0 0
v 0 1 0
v 0 0 0.375
v 0 1 0.375
v 0.2651650429449553 0 0.26516504294495535
v 0.2651650429449553 1 0.26516504294495535
v 0.375 0 2.296212748401287e-17
v 0.375 1 2.296212748401287e-17
v 0.26516504294495535 0 -0.2651650429449553
v 0.26516504294495535 1 -0.2651650429449553
v 4.592425496802574e-17 0 -0.375
v 4.592425496802574e-17 1 -0.375
v -0.2651650429449553 0 -0.26516504294495535
v -0.2651650429449553 1 -0.26516504294495535
v -0.375 0 -6.888638245203862e-17
v -0.375 1 -6.888638245203862e-17
v -0.26516504294495535 0 0.26516504294495524
v -0.26516504294495535 1 0.26516504294495524
v 0.4375 0.5 2.678914873134835e-17
v 0.3093592167691145 0.5 0.3093592167691146
v 0 0.5 0.4375
v -0.3093592167691146 0.5 0.3093592167691145
v -0.4375 0.5 -8.036744619404505e-17
v -0.3093592167691145 0.5 -0.3093592167691146
v 5.35782974626967e-17 0.5 -0.4375
v 0.3093592167691146 0.5 -0.3093592167691145
vt 0.160040625 0.972540625
vt 0.09375 1
vt 0.09375 0.90625
vt 0.765625 0.734375
vt 0.765625 0.609375
vt 0.84375 0.609375
vt 0.84375 0.734375
vt 0.21875 0.65625
vt 0.285040625 0.6837093750000001
vt 0.21875 0.75
vt 0.1875 0.90625
vt 0.160040625 0.972540625
vt 0.09375 0.90625
vt 0.578125 1
vt 0.578125 0.875
vt 0.65625 0.875
vt 0.65625 1
vt 0.285040625 0.6837093750000001
vt 0.3125 0.75
vt 0.21875 0.75
vt 0.160040625 0.8399593750000001
vt 0.1875 0.90625
vt 0.09375 0.90625
vt 0 0.8125
vt 0 0.6875
vt 0.078125 0.6875
vt 0.078125 0.8125
vt 0.3125 0.75
vt 0.285040625 0.8162906249999999
vt 0.21875 0.75
vt 0.09375 0.8125
vt 0.160040625 0.8399593750000001
vt 0.09375 0.90625
vt 0 0.546875
vt 0 0.421875
vt 0.078125 0.421875
vt 0.078125 0.546875
vt 0.285040625 0.8162906249999999
vt 0.21875 0.84375
vt 0.21875 0.75
vt 0.027459374999999994 0.8399593750000001
vt 0.09375 0.8125
vt 0.09375 0.90625
vt 0.203125 0.65625
vt 0.203125 0.53125
vt 0.28125 0.53125
vt 0.28125 0.65625
vt 0.21875 0.84375
vt 0.152459375 0.8162906249999999
vt 0.21875 0.75
vt 0 0.90625
vt 0.027459374999999994 0.8399593750000001
vt 0.09375 0.90625
vt 0.109375 0.65625
vt 0.109375 0.53125
vt 0.1875 0.53125
vt 0.1875 0.65625
vt 0.152459375 0.8162906249999999
vt 0.125 0.75
vt 0.21875 0.75
vt 0.027459374999999994 0.972540625
vt 0 0.90625
vt 0.09375 0.90625
vt 0.296875 0.703125
vt 0.296875 0.578125
vt 0.375 0.578125
vt 0.375 0.703125
vt 0.125 0.75
vt 0.152459375 0.6837093750000001
vt 0.21875 0.75
vt 0.09375 1
vt 0.027459374999999994 0.972540625
vt 0.09375 0.90625
vt 0.421875 0.984375
vt 0.421875 0.859375
vt 0.5 0.859375
vt 0.5 0.984375
vt 0.152459375 0.6837093750000001
vt 0.21875 0.65625
vt 0.21875 0.75
vt 0.6875 0.453125
vt 0.6875 0.578125
vt 0.609375 0.578125
vt 0.609375 0.453125
vt 0.890625 0.0625
vt 0.890625 0.1875
vt 0.8125 0.1875
vt 0.8125 0.0625
vt 1 0
vt 1 0.125
vt 0.921875 0.125
vt 0.921875 0
vt 0.578125 0.25
vt 0.578125 0.375
vt 0.5 0.375
vt 0.5 0.25
vt 0.1875 0.40625
vt 0.1875 0.53125
vt 0.109375 0.53125
vt 0.109375 0.40625
vt 0.28125 0.40625
vt 0.28125 0.53125
vt 0.203125 0.53125
vt 0.203125 0.40625
vt 0.078125 0.296875
vt 0.078125 0.421875
vt 0 0.421875
vt 0 0.296875
vt 0.078125 0.5625
vt 0.078125 0.6875
vt 0 0.6875
vt 0 0.5625
vn 0 -1 0
vn 0.3801567965457312 0.11472246175612674 0.9177796940490139
vn 0 1 0
vn 0 -1 0
vn 0.9177796940490139 0.1147224617561267 0.3801567965457314
vn 0 1 0
vn 0 -1 0
vn 0.9177796940490139 0.11472246175612674 -0.3801567965457312
vn 0 1 0
vn 0 -1 0
vn 0.3801567965457315 0.11472246175612671 -0.9177796940490139
vn 0 1 0
vn 0 -1 0
vn -0.38015679654573115 0.11472246175612674 -0.9177796940490139
vn 0 1 0
vn 0 -1 0
vn -0.9177796940490137 0.11472246175612669 -0.38015679654573137
vn 0 1 0
vn 0 -1 0
vn -0.9177796940490139 0.11472246175612674 0.38015679654573115
vn 0 1 0
vn 0 -1 0
vn -0.38015679654573137 0.11472246175612678 0.9177796940490138
vn 0 1 0
vn 0.9177796940490137 -0.11472246175612671 0.3801567965457313
vn 0.3801567965457312 -0.11472246175612674 0.9177796940490139
vn -0.3801567965457314 -0.11472246175612674 0.9177796940490139
vn -0.9177796940490139 -0.11472246175612678 0.38015679654573115
vn -0.9177796940490137 -0.11472246175612671 -0.38015679654573137
vn -0.38015679654573115 -0.11472246175612674 -0.9177796940490139
vn 0.3801567965457315 -0.11472246175612674 -0.9177796940490139
vn 0.9177796940490139 -0.11472246175612674 -0.3801567965457312
usemtl m_0
f 5/1/1 3/2/1 1/3/1
f 4/4/2 21/5/2 20/6/2 6/7/2
f 4/8/3 6/9/3 2/10/3
f 7/11/4 5/12/4 1/13/4
f 6/14/5 20/15/5 19/16/5 8/17/5
f 6/18/6 8/19/6 2/20/6
f 9/21/7 7/22/7 1/23/7
f 8/24/8 19/25/8 26/26/8 10/27/8
f 8/28/9 10/29/9 2/30/9
f 11/31/10 9/32/10 1/33/10
f 10/34/11 26/35/11 25/36/11 12/37/11
f 10/38/12 12/39/12 2/40/12
f 13/41/13 11/42/13 1/43/13
f 12/44/14 25/45/14 24/46/14 14/47/14
f 12/48/15 14/49/15 2/50/15
f 15/51/16 13/52/16 1/53/16
f 14/54/17 24/55/17 23/56/17 16/57/17
f 14/58/18 16/59/18 2/60/18
f 17/61/19 15/62/19 1/63/19
f 16/64/20 23/65/20 22/66/20 18/67/20
f 16/68/21 18/69/21 2/70/21
f 3/71/22 17/72/22 1/73/22
f 18/74/23 22/75/23 21/76/23 4/77/23
f 18/78/24 4/79/24 2/80/24
f 7/81/25 19/82/25 20/83/25 5/84/25
f 5/85/26 20/86/26 21/87/26 3/88/26
f 3/89/27 21/90/27 22/91/27 17/92/27
f 17/93/28 22/94/28 23/95/28 15/96/28
f 15/97/29 23/98/29 24/99/29 13/100/29
f 13/101/30 24/102/30 25/103/30 11/104/30
f 11/105/31 25/106/31 26/107/31 9/108/31
f 9/109/32 26/110/32 19/111/32 7/112/32