# Blender v2.91.2 OBJ File: 'openedchest.blend'
# www.blender.org
mtllib openedchest.mtl
o Cube.001
v 0.500000 0.496608 -0.491604
v 0.500000 1.318752 0.077676
v -0.500000 0.496608 -0.491604
v -0.500000 1.318752 0.077676
v 0.500000 0.781248 -0.902676
v 0.500000 1.603392 -0.333396
v -0.500000 0.781248 -0.902676
v -0.500000 1.603392 -0.333396
v -0.500000 0.500000 -0.487500
v -0.500000 -0.000000 -0.487500
v 0.500000 0.500000 -0.487500
v 0.500000 -0.000000 -0.487500
v -0.500000 0.500000 0.512500
v -0.500000 0.000000 0.512500
v 0.500000 0.500000 0.512500
v 0.500000 0.000000 0.512500
vt 0.332812 0.340268
vt 0.332812 0.666510
vt 0.005089 0.666510
vt 0.005089 0.340268
vt 0.672667 0.169566
vt 0.999948 0.169566
vt 0.999948 0.334356
vt 0.672667 0.334356
vt 0.003668 0.998905
vt 0.002901 0.668628
vt 0.331791 0.667865
vt 0.332558 0.998142
vt 0.996716 0.998835
vt 0.671226 1.000202
vt 0.671349 0.835243
vt 0.996839 0.833877
vt 0.669221 0.165443
vt 0.666357 0.335357
vt 0.333452 0.334971
vt 0.336316 0.165056
vt 0.334754 0.999104
vt 0.335689 0.834849
vt 0.669639 0.835056
vt 0.668705 0.999311
vt 0.001178 0.337657
vt 0.001495 0.005740
vt 0.335362 0.005844
vt 0.335045 0.337761
vt 1.002496 0.668465
vt 1.003040 0.836442
vt 0.669774 0.836535
vt 0.669230 0.668559
vt 0.670795 0.670122
vt 0.669679 0.832370
vt 0.332981 0.833803
vt 0.334096 0.671555
vt 0.666701 0.669353
vt 0.666701 0.333637
vt 1.000500 0.333637
vt 1.000500 0.669353
vt 0.667279 -0.000387
vt 0.667127 0.167746
vt 0.335945 0.167590
vt 0.336096 -0.000543
vt 0.999322 0.003834
vt 0.998905 0.168880
vt 0.669273 0.167747
vt 0.669690 0.002701
vn 0.0000 -0.5693 0.8221
vn -1.0000 0.0000 0.0000
vn 0.0000 0.5693 -0.8221
vn 1.0000 0.0000 -0.0000
vn 0.0000 -0.8221 -0.5693
vn 0.0000 0.8221 0.5693
vn 0.0000 1.0000 0.0000
vn 0.0000 0.0000 1.0000
vn 0.0000 -1.0000 0.0000
vn -0.0000 -0.0000 -1.0000
usemtl Material
s off
f 1/1/1 2/2/1 4/3/1 3/4/1
f 3/5/2 4/6/2 8/7/2 7/8/2
f 7/9/3 8/10/3 6/11/3 5/12/3
f 5/13/4 6/14/4 2/15/4 1/16/4
f 3/17/5 7/18/5 5/19/5 1/20/5
f 8/21/6 4/22/6 2/23/6 6/24/6
f 9/25/7 13/26/7 15/27/7 11/28/7
f 12/29/4 11/30/4 15/31/4 16/32/4
f 16/33/8 15/34/8 13/35/8 14/36/8
f 14/37/9 10/38/9 12/39/9 16/40/9
f 10/41/10 9/42/10 11/43/10 12/44/10
f 14/45/2 13/46/2 9/47/2 10/48/2
