# Blender v2.90.1 OBJ File: 'Roof.blend'
# www.blender.org
mtllib Roof.mtl
o Cube
v 0.350929 1.000000 -0.006773
v -1.649071 1.000000 -0.006773
v 0.350929 1.000000 -0.006773
v -1.649071 1.000000 -0.006773
v -5.063754 -3.993321 5.440697
v 5.120742 -3.993321 5.440697
v -5.063754 3.584032 -0.157742
v 5.120742 3.584032 -0.157742
v -5.063754 -3.929037 5.533184
v 5.120742 -3.929037 5.533184
v -5.063754 3.648315 -0.065254
v 5.120742 3.648315 -0.065254
v -5.063754 -4.108853 -5.410456
v 5.120742 -4.108853 -5.410456
v -5.063754 3.672805 -0.092688
v 5.120742 3.672805 -0.092688
v -5.063754 -4.041557 -5.500776
v 5.120742 -4.041557 -5.500776
v -5.063754 3.543599 -0.045772
v -5.063754 3.651829 -0.064535
v 5.120742 3.651829 -0.064535
v 5.120742 3.543599 -0.045772
v -4.280001 -2.510727 4.329545
v -4.280001 -2.510727 -4.310455
v -4.280000 3.489273 -0.149574
v -4.280001 -2.425355 -4.310455
v -4.280000 3.489273 -0.029757
v 4.280000 -2.510727 4.337486
v 4.280000 -2.510727 -4.302514
v 4.280000 3.489273 -0.141633
v 4.280000 -2.425355 -4.302514
v 4.280000 3.489273 -0.021816
vt 0.499570 0.001119
vt 0.496004 0.507543
vt 0.002684 0.506424
vt 0.006250 -0.000001
vt 0.000139 0.003826
vt 0.496115 0.001853
vt 0.498089 0.498067
vt 0.002113 0.500040
vt 0.981298 0.903757
vt 0.981298 0.532933
vt 0.985267 0.532933
vt 0.985267 0.903757
vt 0.983066 0.887684
vt 0.983066 0.544652
vt 0.987095 0.544771
vt 0.987095 0.887802
vt 0.975007 0.891708
vt 0.975007 0.548677
vt 0.979036 0.548558
vt 0.979036 0.891590
vt 0.987157 0.532933
vt 0.987157 0.903757
vt 0.983189 0.903757
vt 0.983189 0.532933
vt 0.499521 0.500616
vt 0.001738 0.500822
vt 0.001529 -0.002730
vt 0.499312 -0.002936
vt 0.976386 0.566173
vt 0.979159 0.569008
vt 0.979159 0.909287
vt 0.975130 0.909168
vt 0.975130 0.566136
vt 0.010177 0.490826
vt 0.008804 0.006894
vt 0.496180 0.005511
vt 0.497553 0.489443
vt 0.988294 0.536840
vt 0.988294 0.907664
vt 0.979225 0.907664
vt 0.979225 0.536840
vt 0.254251 0.883786
vt 0.503617 0.504120
vt 0.006718 0.506317
vt 0.006737 0.511704
vt 0.247360 0.883817
vt 0.750350 0.379984
vt 0.507870 0.003855
vt 0.990598 0.005657
vt 0.990583 0.010996
vt 0.757045 0.380009
vn 0.0000 -0.5942 -0.8043
vn 0.0000 0.5942 0.8043
vn 0.0000 -0.8211 0.5707
vn 1.0000 0.0000 0.0000
vn -1.0000 0.0000 0.0000
vn 0.0000 0.8211 -0.5707
vn 0.0000 0.5740 -0.8188
vn 0.0000 -0.5740 0.8188
vn 0.0000 -0.8019 -0.5975
usemtl Material.002
s off
f 5/1/1 7/2/1 8/3/1 6/4/1
f 9/5/2 10/6/2 12/7/2 11/8/2
f 5/9/3 6/10/3 10/11/3 9/12/3
f 6/13/4 8/14/4 12/15/4 10/16/4
f 7/17/5 5/18/5 9/19/5 11/20/5
f 8/21/6 7/22/6 11/23/6 12/24/6
f 15/25/7 16/26/7 18/27/7 17/28/7
f 21/29/4 22/30/4 14/31/4 18/32/4 16/33/4
f 19/34/8 13/35/8 14/36/8 22/37/8
f 14/38/9 13/39/9 17/40/9 18/41/9
f 27/42/4 23/43/4 24/44/4 26/45/4 25/46/4
f 32/47/4 28/48/4 29/49/4 31/50/4 30/51/4
l 3 1
l 4 2
l 20 15
