# Made in Blockbench 4.2.5
mtllib tent.mtl

o cube
v 0 1.5 2.5
v 0 1.5 -0.5
v 1.5 0 2.5
v 1.5 0 -0.5
v -1.5 0 2.5
v -1.5 0 -0.5
vt 0.375 0.625
vt 0 0.625
vt 0 0.359375
vt 0.375 0.359375
vt 0.75 0.734375
vt 0.75 1
vt 0.375 1
vt 0.375 0.734375
vt 0.375 0.625
vt 0.375 1
vt 0 1
vt 0 0.625
vt 0.640625 0.734375
vt 0.37545995705504465 0.734375
vt 0.640625 0.46920995705504465
vt 0.640625 0.46875
vt 0.37545995705504465 0.46875
vt 0.640625 0.20358495705504465
vn 0.7071067811865476 0.7071067811865476 0
vn -0.7071067811865476 0.7071067811865476 0
vn 0 -1 0
vn 0 0 -1
vn 0 0 -1
usemtl m_0
f 2/1/1 1/2/1 3/3/1 4/4/1
f 5/5/2 1/6/2 2/7/2 6/8/2
f 4/9/3 3/10/3 5/11/3 6/12/3
f 1/13/4 3/14/4 5/15/4
f 2/16/5 4/17/5 6/18/5