# Blender v2.81 (sub 16) OBJ File: 'woodfence3.blend'
# www.blender.org
mtllib woodfence3.mtl
o Cube
v 0.125000 1.000000 -0.125000
v 0.125000 0.000000 -0.125000
v 0.125000 1.000000 0.125000
v 0.125000 0.000000 0.125000
v -0.125000 1.000000 -0.125000
v -0.125000 0.000000 -0.125000
v -0.125000 1.000000 0.125000
v -0.125000 0.000000 0.125000
vt 0.625000 1.000000
vt 0.500000 1.000000
vt 0.500000 0.875000
vt 0.625000 0.875000
vt 0.125000 0.500000
vt 0.124900 0.999900
vt 0.000100 0.999900
vt 0.000000 0.500000
vt 0.125000 0.500000
vt 0.125000 1.000000
vt 0.000000 1.000000
vt 0.000000 0.500000
vt 0.125000 0.500000
vt 0.125000 1.000000
vt 0.000100 0.999900
vt -0.000000 0.500000
vt 0.125000 0.500000
vt 0.000000 0.500000
vt 0.000000 -0.000000
vt 0.125000 -0.000000
vn 0.0000 1.0000 0.0000
vn 0.0000 0.0000 1.0000
vn -1.0000 0.0000 0.0000
vn 0.0000 0.0000 -1.0000
vn 1.0000 0.0000 0.0000
usemtl Material
s off
f 1/1/1 5/2/1 7/3/1 3/4/1
f 4/5/2 3/6/2 7/7/2 8/8/2
f 8/9/3 7/10/3 5/11/3 6/12/3
f 6/13/4 5/14/4 1/15/4 2/16/4
f 1/17/5 3/18/5 4/19/5 2/20/5
o Cube.001_Cube.002
v 0.125000 0.562500 0.125000
v 0.125000 0.812500 0.125000
v 0.125000 0.562500 -0.125000
v 0.125000 0.812500 -0.125000
v 0.500000 0.562500 0.125000
v 0.500000 0.812500 0.125000
v 0.500000 0.562500 -0.125000
v 0.500000 0.812500 -0.125000
vt 0.687500 0.281250
vt 0.687500 0.406250
vt 0.500000 0.406250
vt 0.500000 0.281250
vt 0.625000 0.875000
vt 0.625000 1.000000
vt 0.500000 1.000000
vt 0.500000 0.875000
vt 0.687500 0.281250
vt 0.687500 0.406250
vt 0.500000 0.406250
vt 0.500000 0.281250
vt 0.625000 0.750000
vt 1.000000 0.750000
vt 1.000000 0.875000
vt 0.625000 0.875000
vt 0.625000 0.875000
vt 1.000000 0.875000
vt 0.999900 0.999900
vt 0.625000 1.000000
vn 0.0000 0.0000 -1.0000
vn 1.0000 0.0000 0.0000
vn 0.0000 0.0000 1.0000
vn 0.0000 -1.0000 0.0000
vn 0.0000 1.0000 0.0000
usemtl Material.003
s off
f 11/21/6 12/22/6 16/23/6 15/24/6
f 15/25/7 16/26/7 14/27/7 13/28/7
f 13/29/8 14/30/8 10/31/8 9/32/8
f 11/33/9 15/34/9 13/35/9 9/36/9
f 16/37/10 12/38/10 10/39/10 14/40/10
o Cube.002_Cube.003
v 0.125000 0.250000 0.125000
v 0.125000 0.500000 0.125000
v 0.125000 0.250000 -0.125000
v 0.125000 0.500000 -0.125000
v 0.500000 0.250000 0.125000
v 0.500000 0.500000 0.125000
v 0.500000 0.250000 -0.125000
v 0.500000 0.500000 -0.125000
vt 0.500000 0.125000
vt 0.500000 0.250000
vt 0.687500 0.250000
vt 0.687500 0.125000
vt 0.500000 1.000000
vt 0.500000 0.875000
vt 0.625000 0.875000
vt 0.625000 1.000000
vt 0.687500 0.125000
vt 0.687500 0.250000
vt 0.500000 0.250000
vt 0.500000 0.125000
vt 0.625000 0.500000
vt 1.000000 0.500000
vt 1.000000 0.625000
vt 0.625000 0.625000
vt 0.625000 0.625000
vt 1.000000 0.625000
vt 1.000000 0.750000
vt 0.625000 0.750000
vn 0.0000 0.0000 -1.0000
vn 1.0000 0.0000 0.0000
vn 0.0000 0.0000 1.0000
vn 0.0000 -1.0000 0.0000
vn 0.0000 1.0000 0.0000
usemtl Material.002
s off
f 19/41/11 20/42/11 24/43/11 23/44/11
f 23/45/12 24/46/12 22/47/12 21/48/12
f 21/49/13 22/50/13 18/51/13 17/52/13
f 19/53/14 23/54/14 21/55/14 17/56/14
f 24/57/15 20/58/15 18/59/15 22/60/15
o Cube.003_Cube.001
v -0.125000 0.562500 0.125000
v -0.125000 0.812500 0.125000
v 0.125000 0.562500 0.125000
v 0.125000 0.812500 0.125000
v -0.125000 0.562500 0.500000
v -0.125000 0.812500 0.500000
v 0.125000 0.562500 0.500000
v 0.125000 0.812500 0.500000
vt 0.687500 0.281250
vt 0.687500 0.406250
vt 0.500000 0.406250
vt 0.500000 0.281250
vt 0.625000 0.875000
vt 0.625000 1.000000
vt 0.500000 1.000000
vt 0.500000 0.875000
vt 0.687500 0.281250
vt 0.687500 0.406250
vt 0.500000 0.406250
vt 0.500000 0.281250
vt 0.625000 0.750000
vt 1.000000 0.750000
vt 1.000000 0.875000
vt 0.625000 0.875000
vt 0.625000 0.875000
vt 1.000000 0.875000
vt 0.999900 0.999900
vt 0.625000 1.000000
vn 1.0000 0.0000 0.0000
vn 0.0000 0.0000 1.0000
vn -1.0000 0.0000 -0.0000
vn 0.0000 -1.0000 0.0000
vn 0.0000 1.0000 0.0000
usemtl Material.005
s off
f 27/61/16 28/62/16 32/63/16 31/64/16
f 31/65/17 32/66/17 30/67/17 29/68/17
f 29/69/18 30/70/18 26/71/18 25/72/18
f 27/73/19 31/74/19 29/75/19 25/76/19
f 32/77/20 28/78/20 26/79/20 30/80/20
o Cube.004_Cube.005
v -0.125000 0.250000 0.125000
v -0.125000 0.500000 0.125000
v 0.125000 0.250000 0.125000
v 0.125000 0.500000 0.125000
v -0.125000 0.250000 0.500000
v -0.125000 0.500000 0.500000
v 0.125000 0.250000 0.500000
v 0.125000 0.500000 0.500000
vt 0.500000 0.125000
vt 0.500000 0.250000
vt 0.687500 0.250000
vt 0.687500 0.125000
vt 0.500000 1.000000
vt 0.500000 0.875000
vt 0.625000 0.875000
vt 0.625000 1.000000
vt 0.687500 0.125000
vt 0.687500 0.250000
vt 0.500000 0.250000
vt 0.500000 0.125000
vt 0.625000 0.500000
vt 1.000000 0.500000
vt 1.000000 0.625000
vt 0.625000 0.625000
vt 0.625000 0.625000
vt 1.000000 0.625000
vt 1.000000 0.750000
vt 0.625000 0.750000
vn 1.0000 0.0000 0.0000
vn 0.0000 0.0000 1.0000
vn -1.0000 0.0000 -0.0000
vn 0.0000 -1.0000 0.0000
vn 0.0000 1.0000 -0.0000
usemtl Material.006
s off
f 35/81/21 36/82/21 40/83/21 39/84/21
f 39/85/22 40/86/22 38/87/22 37/88/22
f 37/89/23 38/90/23 34/91/23 33/92/23
f 35/93/24 39/94/24 37/95/24 33/96/24
f 40/97/25 36/98/25 34/99/25 38/100/25
